<?xml version="1.0" encoding="UTF-8" standalone="no"?>
<!-- Sijan Maharjan -->
<svg xmlns="http://www.w3.org/2000/svg"
     xmlns:xlink="http://www.w3.org/1999/xlink"
     version="1.1"
     id="svg8"
     width="55mm"
     height="50mm"
    viewBox="0 0 160 140">
    <defs
            id="defs2">
        <linearGradient
                id="linearGradient1090">
            <stop
                    style="stop-color:#ececec;stop-opacity:1;"
                    offset="0"
                    id="stop1086" />
            <stop
                    style="stop-color:#ececec;stop-opacity:0;"
                    offset="1"
                    id="stop1088" />
        </linearGradient>
        <linearGradient
                id="linearGradient1034">
            <stop
                    style="stop-color:#000000;stop-opacity:1;"
                    offset="0"
                    id="stop1032" />
        </linearGradient>
        <linearGradient
                xlink:href="#linearGradient1090"
                id="linearGradient1092"
                x1="198.88376"
                y1="121.13974"
                x2="-33.085098"
                y2="31.025803"
                gradientUnits="userSpaceOnUse"
                gradientTransform="matrix(2.9156135,0,0,3.076038,2.0648567,18.035006)" />
    </defs>
    <g id="layer1">
        <path
                id="path1022"
                style="fill:url(#linearGradient1092);fill-opacity:1;stroke:none;stroke-width:0.792363px;stroke-linecap:butt;stroke-linejoin:miter;stroke-opacity:1"
                d="M 446.39648 96.902344 C 410.65949 97.270526 375.54248 110.00135 349.54102 134.20508 C 289.80166 176.11032 211.28481 143.24537 142.97852 121.97852 C 37.564025 108.9321 -41.475125 195.33215 47.724609 290.16016 C 122.54717 341.20821 18.301336 435.91744 157.58789 478.36523 C 181.00152 471.15427 196.04186 473.78254 229.85938 454.34375 C 266.10871 429.24633 298.26772 426.24861 328.47852 430.69727 C 346.29898 434.32368 357.05107 445.11392 397.48633 425.82227 C 422.01735 402.57609 452.04941 394.25694 486.34375 397.5 C 538.39684 394.17734 570.13251 365.95025 590.14844 323.35547 C 614.04673 241.31491 591.01009 207.93382 574.94336 167.32617 C 545.50675 119.10871 495.3694 96.397798 446.39648 96.902344 z "
                transform="scale(0.26458333)" />
        <path
                transform="scale(0.26458333)"
                d="M 165.60352 235.2207 C 161.16265 235.2207 157.58789 238.79546 157.58789 243.23633 L 157.58789 470.34961 C 157.58789 473.28615 159.15494 475.83637 161.49805 477.23242 C 182.76572 471.38922 197.96623 472.67751 229.86133 454.34375 C 258.83178 434.2859 285.18682 428.34967 310.02539 429.04297 L 310.02539 243.23633 C 310.02539 238.79546 306.45063 235.2207 302.00977 235.2207 L 165.60352 235.2207 z "
                style="fill:#ececec;stroke-width:0.608236"
                id="rect18" />
        <rect
                ry="1.0750095"
                y="64.702026"
                x="43.394264"
                height="2.4684563"
                width="36.782673"
                id="rect24"
                style="fill:#ffffff;stroke-width:0.0807765" />
        <rect
                style="fill:#ffffff;stroke-width:0.205169"
                id="rect24-3"
                width="36.782673"
                height="15.925507"
                x="43.394264"
                y="70.710846"
                ry="2.3505466" />
        <rect
                ry="2.3505466"
                y="88.461014"
                x="43.394264"
                height="15.925507"
                width="36.782673"
                id="rect24-3-7"
                style="fill:#ffffff;stroke-width:0.20517" />
        <path
                id="rect24-3-5"
                style="fill:#ffffff;stroke-width:0.580082"
                d="M 168.98047 403.15234 C 166.22629 403.15234 164.00977 405.36887 164.00977 408.12305 L 164.00977 431.86328 C 164.00977 434.61746 166.22629 436.83594 168.98047 436.83594 L 262.72656 436.83594 C 276.6924 431.59968 290.07667 429.34192 303.03125 429.02734 L 303.03125 408.12305 C 303.03125 405.36887 300.81277 403.15234 298.05859 403.15234 L 168.98047 403.15234 z "
                transform="scale(0.26458333)" />
        <rect
                style="fill:#f2f2f2;stroke-width:0.0627965"
                id="rect24-35"
                width="32.856823"
                height="1.670157"
                x="45.38105"
                y="74.530022"
                ry="0.72735077" />
        <rect
                ry="0.72735077"
                y="80.76667"
                x="45.381153"
                height="1.670157"
                width="32.856823"
                id="rect24-35-6"
                style="fill:#f2f2f2;stroke-width:0.0627965" />
        <rect
                ry="0.72735077"
                y="92.494057"
                x="45.381042"
                height="1.670157"
                width="32.856823"
                id="rect24-35-1"
                style="fill:#f2f2f2;stroke-width:0.0627965" />
        <rect
                style="fill:#f2f2f2;stroke-width:0.0627965"
                id="rect24-35-6-2"
                width="32.856823"
                height="1.670157"
                x="45.381153"
                y="98.730713"
                ry="0.72735077" />
        <rect
                ry="0.72735077"
                y="110.35823"
                x="45.381153"
                height="1.670157"
                width="32.856823"
                id="rect24-35-6-2-7"
                style="fill:#f2f2f2;stroke-width:0.0627965" />
        <path
                id="rect18-0"
                style="fill:#ececec;stroke-width:0.608236"
                d="M 340.67383 233.56836 C 336.23296 233.56836 332.65625 237.14507 332.65625 241.58594 L 332.65625 431.70312 C 348.21408 435.87631 360.30701 443.56051 397.48633 425.82227 C 421.71867 402.85913 451.32164 394.46961 485.0957 397.39453 L 485.0957 241.58594 C 485.0957 237.14507 481.52095 233.56836 477.08008 233.56836 L 340.67383 233.56836 z "
                transform="scale(0.26458333)" />
        <rect
                style="fill:#ffffff;stroke-width:0.0807765"
                id="rect24-9"
                width="36.782673"
                height="2.4684567"
                x="89.714798"
                y="64.265236"
                ry="1.0750095" />
        <rect
                style="fill:#ffffff;stroke-width:0.20517"
                id="rect24-3-7-6"
                width="36.782673"
                height="15.925507"
                x="89.714798"
                y="82.425484"
                ry="2.3505466" />
        <rect
                style="fill:#ffffff;stroke-width:0.15348"
                id="rect24-3-5-0"
                width="36.782673"
                height="8.9118738"
                x="89.714798"
                y="70.929581"
                ry="1.3153604" />
        <rect
                style="fill:#f2f2f2;stroke-width:0.0627966"
                id="rect24-35-1-1"
                width="32.856823"
                height="1.670157"
                x="91.701576"
                y="86.458527"
                ry="0.72735077" />
        <rect
                ry="0.72735077"
                y="92.695183"
                x="91.701683"
                height="1.670157"
                width="32.856823"
                id="rect24-35-6-2-8"
                style="fill:#f2f2f2;stroke-width:0.0627966" />
        <rect
                style="fill:#f2f2f2;stroke-width:0.0627966"
                id="rect24-35-6-2-7-7"
                width="32.856823"
                height="1.670157"
                x="91.701683"
                y="74.620415"
                ry="0.72735077" />
    </g>
</svg>
